inDegrees=no
num_controls=7
num_derivatives=13
num_iterations=107
num_multipliers=7
num_parameters=0
num_slacks=7
num_states=26
objective=5.335783
objective_accelerations=0.736234
objective_balance=0.015318
objective_effort=0.177424
objective_height=4.290456
objective_ligament=0.116351
solver_duration=1177.883712
status=Solve_Succeeded
success=true
DataType=double
version=3
OpenSimVersion=4.4-2022-07-23-0e9fedc
endheader
time	/jointset/ground_pelvis/pelvis_tilt/value	/jointset/ground_pelvis/pelvis_tx/value	/jointset/ground_pelvis/pelvis_ty/value	/jointset/hip_l/hip_flexion_l/value	/jointset/hip_l/hip_adduction_l/value	/jointset/hip_l/hip_rotation_l/value	/jointset/back/lumbar_extension/value	/jointset/patellofemoral_l/patellar_flexion_l/value	/jointset/knee_l/knee_flexion_l/value	/jointset/knee_l/knee_adduction_l/value	/jointset/knee_l/knee_rotation_l/value	/jointset/ankle_l/ankle_angle_l/value	/jointset/subtalar_l/subtalar_angle_l/value	/jointset/ground_pelvis/pelvis_tilt/speed	/jointset/ground_pelvis/pelvis_tx/speed	/jointset/ground_pelvis/pelvis_ty/speed	/jointset/hip_l/hip_flexion_l/speed	/jointset/hip_l/hip_adduction_l/speed	/jointset/hip_l/hip_rotation_l/speed	/jointset/back/lumbar_extension/speed	/jointset/patellofemoral_l/patellar_flexion_l/speed	/jointset/knee_l/knee_flexion_l/speed	/jointset/knee_l/knee_adduction_l/speed	/jointset/knee_l/knee_rotation_l/speed	/jointset/ankle_l/ankle_angle_l/speed	/jointset/subtalar_l/subtalar_angle_l/speed	/forceset/tau_hip_flexion_l	/forceset/tau_hip_adduction_l	/forceset/tau_hip_rotation_l	/forceset/tau_knee_flexion_l	/forceset/tau_ankle_angle_l	/forceset/tau_subtalar_angle_l	/forceset/tau_lumbar_extension	lambda_cid13_p0	lambda_cid13_p1	lambda_cid13_p2	lambda_cid13_p3	lambda_cid13_p4	lambda_cid13_p5	lambda_cid14_p0	/jointset/ground_pelvis/pelvis_tilt/accel	/jointset/ground_pelvis/pelvis_tx/accel	/jointset/ground_pelvis/pelvis_ty/accel	/jointset/hip_l/hip_flexion_l/accel	/jointset/hip_l/hip_adduction_l/accel	/jointset/hip_l/hip_rotation_l/accel	/jointset/back/lumbar_extension/accel	/jointset/patellofemoral_l/patellar_flexion_l/accel	/jointset/knee_l/knee_flexion_l/accel	/jointset/knee_l/knee_adduction_l/accel	/jointset/knee_l/knee_rotation_l/accel	/jointset/ankle_l/ankle_angle_l/accel	/jointset/subtalar_l/subtalar_angle_l/accel	gamma_cid13_p0	gamma_cid13_p1	gamma_cid13_p2	gamma_cid13_p3	gamma_cid13_p4	gamma_cid13_p5	gamma_cid14_p0
1	-0.4270666870371296	-0.00492833993613037	0.5913250265350863	1.691281716414643	-0.3451331725710505	0.1293686959468873	-0.4363217851776634	1.522862181400009	1.522862181399961	0.07420203849173691	-0.1745239326096198	0.4350789053432365	0.2518505472737709	-0.1437616298419935	-0.0001288080993776503	0.03238884633876891	0.03114309763359465	0.0009646480176234534	-0.05699978857644587	5.231559675023434e-05	-0.1503087378906975	-0.1503087378906873	-0.00170370401303496	3.062796277847496e-05	-0.05058513194491238	-0.02914563713275205	-0.2309029495092011	0.03442136687014344	-0.01534967186938206	-0.300619970571731	-0.032505296644946	0.01628783048260055	0.2040909000866386	-42.1356609944548	5.548296003718711	-7.155985725117286	8.025746476175428	-542.2272786668563	-73.12459416850889	-0.02376970955700136	1.433295613608396	0.1471651343329475	2.005870221674832	-6.506510162879328	-0.1772967018621416	-1.673648394563334	-0.03053039562446381	-5.615130460050589	-5.615130460050938	-0.7135400278494081	-0.02761990984410073	-1.024282392111983	-0.900296355931541	-1.293172549717138e-09	-1.301441752890673e-07	-4.106194355878977e-08	-1.102009906622919e-08	-7.186826941778096e-09	-1.58561382173908e-07	2.198892869979645e-09
1.01	-0.42843338560889	-0.004922250899670843	0.5917489683695154	1.691268978996282	-0.3451317371460658	0.128716732619271	-0.4363218376248083	1.521078802695328	1.521078802695294	0.07414863274881558	-0.1745234408849847	0.4345218771213284	0.2515151990892977	-0.1295773481841511	0.001353767976383847	0.05238754757358292	-0.03366625895734381	-0.0006750513285367878	-0.07339247707104535	-5.37568269338548e-05	-0.2063561756260907	-0.2063561756260932	-0.008966296866206641	5.788495782378004e-05	-0.06083061491874114	-0.03791947879948601	-0.2312411504395559	0.03445724078335424	-0.0153851908422075	-0.2996721254329254	-0.03270217746511233	0.01632448835211924	0.2042480528140888	-42.15846446640246	5.502334839271623	-7.109784073000886	7.894206633284487	-541.966837766288	-72.97825455365445	-0.02378568060585898	1.411105284240957	0.149872553509204	1.995071841724707	-6.464499704147818	-0.1569197511710634	-1.622028951963377	0.0007115650620704746	-5.597926702483378	-5.597926702484799	-0.7309609907679228	0.01640108042778011	-1.026204775741939	-0.865215391816735	-8.58371611933768e-10	-1.733640738028547e-07	-5.89590296497391e-08	-2.079440344929537e-08	-1.139074141448104e-08	-2.026336797544804e-07	1.928573704499415e-09
1.02	-0.4296582191956455	-0.004901122360590306	0.59237253756976	1.690608877752621	-0.3451466213545818	0.127900852431681	-0.4363226793498711	1.518735274358853	1.518735274358809	0.07402293266248587	-0.1745229760752047	0.4338620893645386	0.2510922550242017	-0.1153886328314979	0.002879092424824454	0.07231431950188268	-0.09832966742610506	-0.002299278681783986	-0.08978316056787444	-0.0001055400184974971	-0.2623386642494928	-0.2623386642495102	-0.01616257278808773	2.524500283253218e-05	-0.07113703892153046	-0.04666481325712778	-0.2315793513697215	0.03449311469647535	-0.01542070981361495	-0.2987242802941065	-0.03289905828536171	0.01636114622141311	0.2044052055417036	-42.18605972979441	5.456224626378943	-7.062429832731422	7.768017992999597	-541.8175523700349	-72.82781389506694	-0.02380441499021767	1.434182352570478	0.1557148088688329	1.991484360371981	-6.477320538443919	-0.1742023032796305	-1.673247395009298	-0.01967254919917229	-5.602140637652373	-5.602140637653099	-0.7002766415913434	-0.03959929985156578	-1.036470597903987	-0.8945949141131792	-1.239718464027637e-09	-2.084476990908011e-07	-7.389204558697513e-08	-2.714673458396533e-08	-1.623469099371353e-08	-2.369121549213848e-07	1.73469046468635e-09
1.03	-0.4307410117435368	-0.004864475122516721	0.5931949611634787	1.689302840232826	-0.3451775971539099	0.126921282352597	-0.4363238042974802	1.515832329621617	1.515832329621624	0.07382553606170236	-0.1745229950974751	0.4330989277119551	0.2505821386437392	-0.1011562134217451	0.004462676336321246	0.09215309598094243	-0.1628568503799561	-0.003886196696110371	-0.1061078645625049	-0.0001139301197803469	-0.3182311731322446	-0.3182311731322615	-0.02331459790239289	-2.469015010133258e-05	-0.08150577105654108	-0.05534020672561518	-0.2317436368796755	0.0345241022656976	-0.01542827052495572	-0.2976045727417312	-0.03299163663840378	0.01644312633773072	0.2044662220088461	-42.15457397062904	5.370246607721469	-6.99748050989569	7.57281170182555	-541.4231886313987	-72.70254407722913	-0.02382859379485158	1.419821181701677	0.161521623477997	1.977474556117869	-6.437269426721491	-0.1494679096753363	-1.608647914616156	0.009405670427039325	-5.579939810814924	-5.579939810814354	-0.72236410521895	0.01293067216907889	-1.038657994605793	-0.8512238185498456	-1.629393354793728e-09	-2.434483011825655e-07	-8.879481591039775e-08	-3.346414762426388e-08	-2.108517154342081e-08	-2.710906931248843e-07	1.54158718329846e-09
1.04	-0.431681070208034	-0.004811623757090299	0.594215252574877	1.687352160432882	-0.3452241484052283	0.1257791520310061	-0.4363248475637672	1.512371033036106	1.512371033036169	0.07355667947855747	-0.1745233892123041	0.4322317620433596	0.2499858258775229	-0.0868418161510309	0.006119917895392035	0.1118878830377495	-0.2272581234484372	-0.005414369077078961	-0.1222952090742056	-8.92037802560599e-05	-0.3740090339041328	-0.3740090339041445	-0.03045456937148119	-4.977349569672484e-05	-0.09193784212379627	-0.06390409040743898	-0.2319079223898561	0.03455508983489931	-0.01543583123460133	-0.2964848651892849	-0.03308421499142209	0.01652510645399927	0.2045272384757455	-42.12808707800274	5.284218231623902	-6.931465633541292	7.383291074155388	-541.1408707113085	-72.57398111613423	-0.02385565177529583	1.450577924762598	0.170446338383754	1.97068647592145	-6.452138561369945	-0.1624531766082463	-1.645775498423399	-0.01304926103581334	-5.579211015479597	-5.579211015479397	-0.6978659125480788	-0.03462893838413218	-1.049138384352694	-0.8722929567805834	-1.50565627019594e-09	-2.802323322796675e-07	-1.072818631471316e-07	-4.085123245252713e-08	-2.533517365064807e-08	-3.085203250643932e-07	1.795469829672877e-09
1.05	-0.4324773385242478	-0.004741795191139286	0.5954323056979388	1.684758030633225	-0.3452856483792107	0.1244758512874842	-0.436325827846807	1.508352661288861	1.508352661288947	0.0732165849419298	-0.1745238798470006	0.4312599442292753	0.2493045092717139	-0.07237418142207654	0.007861781562473089	0.1314989481849057	-0.2915547193230754	-0.006871184025027	-0.1383391374528068	-0.0001369199477383105	-0.4296331192999523	-0.4296331192999522	-0.03755264270382871	-3.90523173370996e-05	-0.1024369689604433	-0.07233128767219171	-0.2317509405381133	0.0345812443495909	-0.01541657567814111	-0.2952253414286785	-0.03296726219238511	0.01664382553741716	0.2043599883875514	-42.00454544711402	5.16051818025212	-6.854051034732138	7.116887191984614	-540.5038195608897	-72.45847723351473	-0.02388824953129182	1.450505601096877	0.1784445919920384	1.952741569636966	-6.416453186602113	-0.1351062534132635	-1.579849981478827	-0.005142867405313971	-5.549178280192719	-5.54917828019166	-0.7140516551544664	0.02027357074109275	-1.052001987753694	-0.8236760661976817	-1.365875061368034e-09	-3.170720955331864e-07	-1.258809190374063e-07	-4.827174452416427e-08	-2.956641080654783e-08	-3.460515536831524e-07	2.063320786289863e-09
1.06	-0.4331278006222758	-0.004654070346293991	0.596844754479578	1.681521328257652	-0.3453612786225724	0.123012881565405	-0.4363281873050543	1.503779014491946	1.503779014492001	0.07280585494991013	-0.1745239930849682	0.4301827947159476	0.2485397721022777	-0.057680572527802	0.009699173674248324	0.1509670147531621	-0.3557726386414235	-0.008240422953984807	-0.1542290047874292	-0.0003650390272543052	-0.4850640438381241	-0.4850640438381151	-0.04458166049924759	2.570585281159886e-05	-0.1130041819743769	-0.08058820313194673	-0.2315939586862449	0.03460739886420533	-0.01539732012094601	-0.2939658176680212	-0.03285030939336667	0.01676254462068451	0.2041927382994999	-41.88626288698502	5.036885679582061	-6.775672313190075	6.856353738269112	-539.9795915261059	-72.340991251877	-0.02392384814609308	1.495772757826582	0.1895520273226864	1.942086760141481	-6.436403250111943	-0.1449379728103931	-1.614963289627688	-0.04912984343879014	-5.540578843950027	-5.540578843950387	-0.6840548051624964	-0.02382154002660997	-1.06275561980986	-0.8382365957812075	-3.655830824227761e-09	-3.609025747851856e-07	-1.387563763153795e-07	-5.167797443748613e-08	-3.633968804426948e-08	-3.839931545951032e-07	8.771952350296145e-10
1.07	-0.4336307612869631	-0.004547392017862155	0.5984511246663873	1.67764328503816	-0.3454502619745874	0.1213916601837731	-0.4363321353604877	1.498651850481449	1.498651850481502	0.07232512843742611	-0.1745234353122257	0.4289995800112531	0.2476931445033362	-0.04293059187047121	0.01166267171851709	0.1702789611739743	-0.4197792269076682	-0.009552954860072588	-0.1699996360474249	-0.0002949441384366675	-0.5403549642387091	-0.5403549642387127	-0.05156243139738113	6.756199048332012e-05	-0.1236557061167074	-0.08872862109528393	-0.2318684950283621	0.0347149340021752	-0.01536195524902991	-0.2923653039507452	-0.03304870858834456	0.01689109013572888	0.2044822999239142	-41.87160883836597	4.90869712213367	-6.675512471381797	6.57071160133976	-539.6406732509871	-72.19661578046781	-0.02396544705506804	1.461755282275094	0.2036646295901058	1.921530620458988	-6.374270962129473	-0.123887642233913	-1.555793877602065	0.05452344821989093	-5.521279439491372	-5.521279439493604	-0.7049445173094357	0.01539210828905277	-1.068912790230726	-0.8005572312915362	-6.075027915368761e-09	-4.051049006328488e-07	-1.513273868586557e-07	-5.487067870408908e-08	-4.32481801799604e-08	-4.219565838205216e-07	-3.862694921815604e-10
1.08	-0.4339867932324933	-0.004420295521666227	0.6002497707248867	1.67312687906658	-0.3455522660142045	0.1196131963228279	-0.4363314936161473	1.492972191106671	1.492972191106687	0.0717746229590166	-0.1745230183945234	0.4277093376693952	0.246765390157821	-0.02829482870967496	0.01378280722706685	0.189422189091164	-0.4834451890639311	-0.01084456047517794	-0.1856775006440881	0.0005529224773872869	-0.5955631166944134	-0.5955631166944299	-0.05853745370235581	-2.465166860106255e-06	-0.1344097094104546	-0.09681355244588677	-0.2321430313704907	0.03482246913993955	-0.01532659037692666	-0.2907647902334614	-0.03324710778334803	0.01701963565041948	0.2047718615483372	-41.86258731023187	4.780691471497252	-6.574464060604833	6.291003183473817	-539.4183289688295	-72.05183167292171	-0.02401029608863737	1.472929258519834	0.220879520178859	1.908343059416955	-6.368278028115524	-0.1407527146140569	-1.596409956961143	0.1064245019584883	-5.52402525497386	-5.524025254974289	-0.6829050865308913	-0.0461981990298994	-1.083251450093258	-0.8271392732345527	-7.677863394270855e-09	-4.393435001491828e-07	-1.636023717616773e-07	-5.830473400637436e-08	-4.840986951211271e-08	-4.481071214440415e-07	-1.46717731863688e-09
